<?xml version="1.0" encoding="UTF-8"?>
<svg xmlns="http://www.w3.org/2000/svg" version="1.1" viewBox="0 0 1525.9 990.4">
  <defs>
    <style>
      .cls-1 {
        fill: #165dfc;
      }
    </style>
  </defs>
  <!-- Generator: Adobe Illustrator 28.6.0, SVG Export Plug-In . SVG Version: 1.2.0 Build 709)  -->
  <g>
    <g id="Layer_2">
      <g>
        <polygon class="cls-1" points="203.3 284.6 203.3 259.2 150.3 273.4 150.3 519.4 170.3 514 203.3 505.2 203.3 284.6"/>
        <polygon class="cls-1" points="280.4 263.9 280.4 238.5 211.4 257 211.4 282.4 211.4 298.3 223.3 295.1 231.4 293 280.4 279.9 280.4 263.9"/>
        <polygon class="cls-1" points="211.4 395.5 223.3 392.4 231.4 390.2 276.3 378.2 276.3 362.5 276.3 337.2 223.3 351.4 211.4 354.5 211.4 395.5"/>
        <polygon class="cls-1" points="211.4 503 223.3 499.8 231.4 497.6 280.4 484.5 280.4 467.3 280.4 442 223.3 457.3 211.4 460.5 211.4 503"/>
        <path class="cls-1" d="M396.9,457.8c3.7-1.3,7.3-2.7,10.7-4.2,38.6-16.7,58-44.9,58-84.5v-26.4l-55.1,14.8v33.9c0,14.3-7.5,24.1-22.9,29.7v39.8c3.2-.9,6.3-1.9,9.3-3h0Z"/>
        <path class="cls-1" d="M396.9,243.9c4.9.4,8.5,2.5,10.7,6.2,1.9,3.2,2.9,7.6,2.9,13.2v26.1l20-5.4,35.1-9.4v-23c0-11.3-1.6-20.8-4.9-28.4-9.8-22.8-34.2-29.2-73-19v40.4c3.5-.7,6.6-1,9.3-.7h-.1Z"/>
        <path class="cls-1" d="M376.9,463.6v-39.8h-1.2c-13.4,1.2-20-4.8-20-18v-128c0-14.6,7-24.5,21.2-30.2v-40.4c-50.1,15.9-75.1,45-75.1,87.2v116.8c0,27.1,8.5,44.2,25.6,51.5,12.1,5.2,28.6,5.5,49.4.8h.1Z"/>
        <path class="cls-1" d="M516.4,411.7c12.3,5.5,29,5.9,50,1.1v-39.8c-.8.1-1.5.2-2.3.3-13.3,1.3-20-5.7-20-20.7v-123.9c0-15.5,7.5-26.2,22.3-32.1v-40.1c-50.7,15.1-76.2,45-76.2,89.1v112.4c0,28,8.8,45.9,26.2,53.6h0Z"/>
        <path class="cls-1" d="M586.4,194c4.3.9,7.5,3.1,9.6,6.7,1.9,3.2,2.8,7.6,2.9,13.1v124.2c0,16.1-7.5,26.9-22.9,32.5v39.8c3.6-1.1,7.1-2.2,10.4-3.4,3.3-1.2,6.5-2.5,9.6-3.8,38.6-17,58-46.1,58-87.6v-112.4c0-12-1.8-22.1-5.3-30.1-10-22.8-34.3-29.3-72.6-19.2v40.4c4-.7,7.5-.7,10.4,0v-.2Z"/>
        <polygon class="cls-1" points="550.7 479.1 550.7 453.7 387.3 497.5 387.3 538.8 407.3 533.5 550.7 495 550.7 479.1"/>
        <polygon class="cls-1" points="442.4 533.7 442.4 549.4 442.4 728.8 462.4 723.4 495.1 714.6 495.1 544.9 495.1 535.3 495.1 519.6 442.4 533.7"/>
        <polygon class="cls-1" points="621.2 460.2 621.2 434.9 568.7 448.9 568.7 474.3 568.7 515.6 568.7 694.9 588.7 689.5 621.2 680.9 621.2 460.2"/>
        <path class="cls-1" d="M726.9,630.8v-54c0-8.4-.9-15.5-2.7-21.4-.4-1.4-.9-2.8-1.5-4.1-4.7-11-13.4-16.6-25.9-16.7,22-10.6,30.7-30.6,30.7-62.9s-1.5-18.6-4.3-25.6c-9.5-23.1-34.7-29.2-75.7-18.2l-16.8,4.5v41.3l10.4-2.8,7.8-2.1c.6-.2,1.2-.3,1.7-.4,14.7-3.4,21.6,2.9,22.7,19.5,0,1.6.2,3.3.2,5.1,0,17.7-8.1,29.8-24.6,34.2l-7.8,2.1-10.4,2.8v41l10.4-2.8,7.8-2.1c.6-.2,1.2-.3,1.7-.4,13.2-2.9,20.6,3.7,22.1,19.6.2,1.9.3,3.9.3,6v55.6c0,8.1,1.2,13.7,3.8,17l16.2-4.3,37.4-10c-2.6-4-3.5-11.2-3.5-20.8h0Z"/>
        <polygon class="cls-1" points="874.3 392.4 868.3 368.6 800.2 386.9 746.9 626.3 742 648.5 746.9 647.2 768 641.5 794.2 634.5 834.7 431.1 846.4 492.9 852.7 526.3 839 529.9 822.3 534.4 814.7 577.4 830.4 573.2 839.4 570.8 860.5 565.2 865.8 589.1 871.2 613.8 886 609.9 926.6 599 874.3 392.4"/>
        <path class="cls-1" d="M994.7,522.4v-128c0-14.6,7-24.5,21.2-30.2v-40.4c-50.1,15.9-75.1,45-75.1,87.2v116.8c0,27.1,8.5,44.2,25.6,51.5,12.1,5.2,28.6,5.5,49.4.8v-39.8h-1.2c-13.4,1.2-20-4.7-20-18h0Z"/>
        <path class="cls-1" d="M1035.8,574.2c3.7-1.3,7.3-2.7,10.7-4.2,38.6-16.7,58-44.9,58-84.5v-26.4l-55.1,14.8v33.9c0,14.3-7.5,24.1-22.9,29.7v39.8c3.2-.9,6.3-1.9,9.3-3h0Z"/>
        <path class="cls-1" d="M1104.5,368.1c0-11.3-1.6-20.8-4.9-28.4-9.8-22.8-34.2-29.2-73-19v40.4c3.5-.7,6.6-1,9.3-.7,4.9.4,8.5,2.5,10.7,6.2,1.9,3.2,2.9,7.6,2.9,13.2v26.1l20-5.4,35.1-9.4v-23h0Z"/>
        <path class="cls-1" d="M1450.7,135.1l-34,9c-4.3,1.2-434.8,115.4-453.9,120.4-14.1,3.7-26.8,12.1-37.9,21.7l-2.5-9.7-185.5,49.7-6.6,29.9c-1.7-.7-3.5-1.3-5.2-1.9,2.5-12.2,3.8-24.9,3.9-38.2.3-4.7,2.4-37.6,1.3-75.7-1.5-56.7-8.8-94-22.2-113.9-12.1-18-27.5-30.5-47-38.1-16.7-6.5-36-9.4-60.9-9-28.6.4-66.6,8.3-90.3,18.9-18.3,8.2-34.3,19.3-48.7,33.7-77.1-18.8-147.4,16.7-164.3,26.2l-221.6,57.7v401.4l237-63.5v83l55.1-14.8v204.7l1045.4-280.1-90.6-179.3,128.5-232.1ZM1369.4,527l-971.9,260.4v-204.7l-55.1,14.8v-83l-237,63.5V239l202.7-52.7,1.5-.8c.1,0,.4-.2.9-.5,12.8-7.4,80.1-43,151.2-21.7l9.1,2.7,6.3-7.1c13.3-14.8,27.6-25.4,45-33.2,20.1-9,53.8-16,78.4-16.3,42.2-.5,66.1,9.3,82.7,33.9,5.6,8.3,15.3,32.1,17.1,97.7,1.1,38.8-1.3,73.2-1.3,73.6v1c0,16-2.2,31.1-6.5,44.9l-4.9,15.9,16.3,3.2c10.6,2.1,20.4,5.9,28.9,11.2l18,11.1,11.4-51.4,138.5-37.1,8.3,32.7,18.8-20.6c11.6-12.7,27-27.9,42.5-32,15.9-4.2,317.1-84.1,419.9-111.4l-102.1,184.4,81.1,160.5h.2Z"/>
        <polygon class="cls-1" points="1249.1 344.1 1283 282.9 1299.5 253.1 1243.9 268 1222.7 311.9 1244.2 353 1249.1 344.1"/>
        <polygon class="cls-1" points="1231.2 353.5 1216.1 323.6 1203.9 348.1 1192 372 1192 442.5 1203 422.1 1203.9 423.9 1212 440.4 1217.7 452 1247.7 513 1256.6 510.6 1304.2 497.8 1231.2 353.5"/>
        <polygon class="cls-1" points="1183.9 309.4 1183.9 284.1 1130.6 298.4 1130.6 544.4 1150.6 539 1183.9 530.1 1183.9 309.4"/>
        <polygon class="cls-1" points="535.3 814.8 535.3 802.2 518.3 806.7 518.3 819.4 518.3 847 511.4 848.8 511.4 821.2 511.4 808.6 494.4 813.1 494.4 911.1 504.4 908.4 511.4 906.6 511.4 866.3 518.3 864.5 518.3 904.7 521.4 903.9 528.3 902 535.3 900.2 535.3 814.8"/>
        <path class="cls-1" d="M567.1,892.9l6.9-1.8c9.4-2.5,17.1-12.8,17.1-22.9v-63.9c0-1.4-.2-2.8-.5-4.1-1.8-7.6-8.5-11.8-16.6-9.7l-6.9,1.8c-9.4,2.5-17.1,12.8-17.1,22.9v63.9c0,7.6,4.3,12.9,10.5,14.1,2,.4,4.3.3,6.6-.3ZM574,870c0,2-1.5,4-3.4,4.5h-.3c-1.9.6-3.4-.6-3.4-2.6v-58.4c0-2,1.5-4,3.4-4.5h.3c1.9-.6,3.4.6,3.4,2.6v58.4Z"/>
        <polygon class="cls-1" points="663 780.6 663 767.9 644.6 772.9 637.8 803.2 634.3 819 627.1 790.2 624.1 778.4 605.7 783.3 605.7 881.3 615.7 878.6 622.7 876.7 622.7 835.8 632.2 874.2 632.7 874.1 636.5 873 637.9 866.7 646 829.5 646 870.5 649.4 869.6 656 867.8 663 865.9 663 780.6"/>
        <polygon class="cls-1" points="694.6 776.9 712.1 772.2 712.1 767.5 712.1 754.8 677.6 764 677.6 862 687.6 859.3 712.1 852.8 712.1 848 712.1 835.3 704.6 837.3 694.6 840 694.6 817.2 708 813.6 708 808.8 708 796.2 704.6 797 694.6 799.7 694.6 776.9"/>
        <path class="cls-1" d="M762,804.2l9.9-2.7c7.8-2.1,14.2-10.6,14.2-19v-32.3c0-.6,0-1.3,0-1.9-.9-7.3-6.8-11.5-14.1-9.6l-26.9,7.2v98l10-2.7,7-1.9v-35.2h0ZM769.1,781.2c0,2-1.5,4-3.3,4.5l-3.7,1v-27.8l3.7-1c1.8-.5,3.3.7,3.3,2.7v20.7h0Z"/>
        <path class="cls-1" d="M841.9,782.1h0v-1.9c0-4.9-3-8.2-7.1-8.4-.9,0-2,0-3,.3h-.3c1.2-.2,2.3-.8,3.4-1.4,4.1-2.6,7-7.5,7-12.4v-25.1c-.6-7.2-6.3-11.5-13.4-9.6l-27.7,7.4v98l10-2.7,7-1.9v-39.9l1.9-.5c2.8-.8,5.1,1.1,5.1,4.1v34.4l2.9-.8,7.1-1.9,7-1.9v-35.9h0ZM824.9,760.9c0,2.4-1.8,4.8-4,5.4l-3,.8v-23.2l3.7-1c1.8-.5,3.3.7,3.3,2.7v15.3Z"/>
        <path class="cls-1" d="M873.6,810.8l6.9-1.8c9.4-2.5,17.1-12.8,17.1-22.9v-63.9c0-1.4-.2-2.8-.5-4.1-1.8-7.6-8.5-11.8-16.6-9.7l-6.9,1.8c-9.4,2.5-17.1,12.8-17.1,22.9v63.9c0,7.6,4.3,12.9,10.5,14.1,2,.4,4.3.3,6.6-.3ZM880.6,787.8c0,2-1.5,4-3.4,4.5h-.3c-1.9.6-3.4-.6-3.4-2.6v-58.4c0-2,1.5-4,3.4-4.5h.3c1.9-.6,3.4.6,3.4,2.6v58.4Z"/>
        <path class="cls-1" d="M953.4,769.4v-60.5c0-1.6,0-3.2-.4-4.6-1.4-7.7-6.9-12.1-18-9.2l-22.7,6.1v98l10-2.7,12.7-3.4c13.2-3.5,18.4-13.3,18.4-23.7h0ZM933,776.1l-3.8,1v-63.1l3.8-1c1.8-.5,3.3.7,3.3,2.7v55.9c0,2-1.5,4-3.3,4.5h0Z"/>
        <path class="cls-1" d="M985.1,780.8l6.9-1.8c9.4-2.5,17.1-12.8,17.1-22.9v-80.9l-17,4.6v78.1c0,2-1.5,4-3.4,4.5h-.3c-1.9.6-3.4-.6-3.4-2.6v-78.1l-17,4.6v80.9c0,7.6,4.3,12.9,10.5,14.1,2,.4,4.3.3,6.6-.3v-.2Z"/>
        <path class="cls-1" d="M1064.7,677.3c0-1.4-.2-2.8-.5-4.1-1.8-7.6-8.5-11.8-16.6-9.7l-6.9,1.8c-9.4,2.5-17.1,12.8-17.1,22.9v63.9c0,7.6,4.3,13,10.5,14.1,2,.4,4.3.3,6.6-.3l6.9-1.8c9.4-2.5,17.1-12.8,17.1-22.9v-25.5l-14,3.8-3,.8v22.8c0,2-1.5,4-3.4,4.5h-.3c-1.9.6-3.4-.6-3.4-2.6v-58.4c0-2,1.5-4,3.4-4.5h.3c1.9-.6,3.4.6,3.4,2.6v18.2l3-.8,7-1.9,7-1.9v-21h0Z"/>
        <polygon class="cls-1" points="1106.9 666.5 1118.4 663.4 1118.4 658.6 1118.4 645.9 1078.4 656.6 1078.4 674.1 1088.4 671.4 1089.9 671 1089.9 683.7 1089.9 751.5 1099.9 748.9 1106.9 747 1106.9 666.5"/>
        <polygon class="cls-1" points="1150.1 650.1 1150.1 637.4 1133.1 642 1133.1 740 1143.1 737.3 1150.1 735.4 1150.1 650.1"/>
        <polygon class="cls-1" points="1206.4 635 1208.1 621.9 1191.9 626.2 1190.1 640.4 1185.9 673.2 1181.6 641.6 1180 629.4 1163.8 633.7 1176.7 728.3 1185 726.1 1195.2 723.3 1206.4 635"/>
        <polygon class="cls-1" points="1238.9 626.3 1238.9 613.6 1221.9 618.2 1221.9 716.2 1231.9 713.5 1238.9 711.6 1238.9 626.3"/>
        <polygon class="cls-1" points="1282.1 619.5 1293.6 616.4 1293.6 611.7 1293.6 599 1253.5 609.7 1253.5 627.2 1263.5 624.5 1265.1 624.1 1265.1 636.8 1265.1 704.6 1275.1 701.9 1282.1 700.1 1282.1 619.5"/>
        <polygon class="cls-1" points="1336.9 648.8 1337.1 648.8 1348.1 597.1 1350.9 583.6 1334.9 587.9 1332.5 601.4 1332.3 602.8 1328.7 623.4 1325.1 604.8 1324.8 603.3 1322.5 591.2 1306.4 595.5 1319.9 652 1319.9 689.9 1329.9 687.2 1336.9 685.4 1336.9 648.8"/>
      </g>
    </g>
  </g>
</svg>