<?xml version="1.0" encoding="UTF-8"?>
<svg xmlns="http://www.w3.org/2000/svg" version="1.1" viewBox="0 0 1525.9 990.4">
  <defs>
    <style>
      .cls-1 {
        fill: none;
      }

      .cls-2 {
        fill: #165dfc;
      }

      .cls-3 {
        fill: #fff;
      }
    </style>
  </defs>
  <!-- Generator: Adobe Illustrator 28.6.0, SVG Export Plug-In . SVG Version: 1.2.0 Build 709)  -->
  <g>
    <g id="Layer_2">
      <g>
        <polygon class="cls-1" points="852.7 521.3 846.4 487.9 839 524.9 852.7 521.3"/>
        <path class="cls-1" d="M649,522.1c16.5-4.4,24.6-16.5,24.6-34.2s0-3.5-.2-5.1c-1.4.2-2.9.5-4.5,1l-18.3,4.9v-25.3c-.6.1-1.2.3-1.7.4l-7.8,2.1v58.4l7.8-2.1Z"/>
        <path class="cls-1" d="M576,388v-22.4c15.4-5.7,22.9-16.4,22.9-32.5v-123.9c0-.1,0-.2,0-.3-.9,0-1.9.2-2.9.4v-13.4c-2.1-3.6-5.2-5.8-9.6-6.7v22.7c-14.8,5.8-22.3,16.5-22.3,32.1v123.9c0,.2,0,.5,0,.7.7,0,1.5-.2,2.3-.3v12c2,4.1,5.2,6.7,9.6,7.8Z"/>
        <path class="cls-1" d="M834.9,765.7c-1.1.7-2.2,1.2-3.4,1.5h.3c1-.4,2-.5,3-.4,0-.3,0-.6,0-.9v-.2Z"/>
        <path class="cls-1" d="M1390.3,177.1c-102.8,27.3-404,107.2-419.9,111.4-15.6,4.1-30.9,19.2-42.5,32l-18.8,20.6-8.3-32.7-138.5,37.1-11.4,51.4-18-11.1c-8.6-5.3-18.3-9.1-28.9-11.2l-16.3-3.2,4.9-15.9c4.3-13.8,6.4-28.9,6.4-44.9v-1c0-.3,2.4-34.7,1.3-73.6-1.8-65.6-11.5-89.4-17.1-97.7-16.6-24.6-40.5-34.4-82.7-33.9-24.6.3-58.3,7.3-78.4,16.3-17.4,7.8-31.7,18.3-45,33.2l-6.3,7.1-9.1-2.7c-71.1-21.2-138.4,14.4-151.2,21.7-.5.3-.8.5-.9.5l-1.5.8-202.7,52.7v339.1l237-63.5v83l55.1-14.8v204.7l971.9-260.4-81.1-160.5,102.1-184.4ZM1243.9,263l55.6-14.9-16.5,29.8,36.5-9.8-55.3,99.9-15.1-28.9-4.9,8.9-21.4-41.2,21.2-43.9ZM490.2,240.7c0-44.1,25.5-73.9,76.2-89.1v27.3c3.1-1.4,6.2-2.6,9.6-3.9v-26.3c38.4-10.1,62.6-3.6,72.6,19.2,16.8,7,25.3,23.7,25.3,50.1v112.4c0,48.1-26.1,79.7-78,94.8v-27.2c-3.1,1.3-6.3,2.6-9.6,3.8v26c-36.3,8.2-59.7,1.1-70-21.1-17.4-7.7-26.2-25.6-26.2-53.6v-112.4ZM300.4,294.9l-69,18.5v-25.4l-8.1,2.2v56.2l53-14.2v25.4l20-5.4v41l-64.9,17.4v-25.4l-8.1,2.2v64.9l57.1-15.3v25.4l20-5.4v42.5l-69,18.5v-25.4l-8.1,2.2v25.4l-53,14.2v-25.4l-20,5.4v-246l53-14.2v25.4l8.1-2.2v-25.4l69-18.5v25.4l20-5.4v41.3ZM327.5,457.9c-17.1-7.3-25.6-24.4-25.6-51.5v-116.8c0-42.2,24.9-71.3,75.1-87.2v27.7c3.4-1.6,7-3.1,10.7-4.5v-26.4c38.8-10.2,63.2-3.8,73,19,16.6,6.8,24.9,23,24.9,48.4v23l-55.1,14.8v-25.4l-20,5.4v-25.3c-.9.1-1.9.3-2.9.5v-14.5c-2.2-3.7-5.8-5.8-10.7-6.2v23.9c-14.2,5.7-21.2,15.6-21.2,30.2v126c.4,0,.8,0,1.2,0v10.3c1.7,5.2,5.2,8.4,10.7,9.5v-22.7c15.4-5.7,22.9-15.5,22.9-29.7v-33.9l55.1-14.8v25.4l20-5.4v26.4c0,46-26.1,76.6-78,91.7v-27.2c-3.4,1.5-7,2.9-10.7,4.2v25.8c-36.4,8.2-59.5,1.3-69.4-20.8ZM891.2,628.8l-5.3-23.9-14.7,3.9-5.4-24.7-31.1,8.3,4.7-26.6-9,2.4-16.2,81.3-52.2,14,6-27-21.1,5.6v3.6c0,9.6.9,16.8,3.5,20.8l-53.6,14.4c-2.6-3.3-3.8-8.9-3.8-17v-7.3l-16.2,4.3c-2.6-3.3-3.8-8.9-3.8-17v-55.6c0-2.1,0-4.1-.3-6-1.2.2-2.5.4-3.8.8l-18.3,4.9v-25.3c-.6.1-1.2.3-1.7.4l-7.8,2.1v130.6l-52.5,14.1v-25.4l-20,5.4v-179.3l-73.6,19.7v9.6l20-5.4v195l-52.7,14.1v-25.4l-20,5.4v-179.3l-35.1,9.4v-25.4l-20,5.4v-41.3l163.4-43.8v25.4l18-4.8v-25.4l52.5-14.1v25.4l9.6-2.6v-25.4l16.8-4.5c41-11,66.2-4.9,75.7,18.2,16.2,6.4,24.3,21.6,24.3,45.6s-7.1,48.4-24.8,59.6c.6,1.3,1,2.7,1.5,4.1,15.1,3.4,22.7,17.2,22.7,41.4v29.6l53.3-239.4,68.1-18.2,6,23.8,14-3.8,58.2,230.4-55.3,14.8ZM1124.5,406.1l-55.1,14.8v-25.4l-20,5.4v-25.3c-.9.1-1.9.3-2.9.5v-14.5c-2.2-3.7-5.8-5.8-10.7-6.2v23.9c-14.2,5.7-21.2,15.6-21.2,30.2v126c.4,0,.8,0,1.2,0v10.3c1.7,5.2,5.2,8.4,10.7,9.5v-22.7c15.4-5.7,22.9-15.5,22.9-29.7v-33.9l55.1-14.8v25.4l20-5.4v26.4c0,46-26.1,76.6-78,91.7v-27.2c-3.4,1.5-7,2.9-10.7,4.2v25.8c-36.4,8.2-59.5,1.3-69.4-20.8-17.1-7.3-25.6-24.4-25.6-51.5v-116.8c0-42.2,24.9-71.3,75.1-87.2v27.7c3.4-1.6,7-3.1,10.7-4.5v-26.4c38.8-10.2,63.2-3.8,73,19,16.6,6.8,24.9,23,24.9,48.4v23ZM1324.2,512.8l-56.5,15.1-11-22.4-9,2.4-30-61-5.7,10.5v-22l-8.1-16.5v126.1l-53.3,14.3v-25.4l-20,5.4v-246l53.3-14.3v25.4l20-5.4v44l12.2-24.5,15.1,29.9,4.9-9.9,88.1,174.2Z"/>
        <polygon class="cls-2" points="280.4 274.9 231.4 288 231.4 313.3 300.4 294.9 300.4 253.5 280.4 258.9 280.4 274.9"/>
        <polygon class="cls-2" points="211.4 277.4 203.3 279.6 203.3 500.2 170.3 509 170.3 534.4 223.3 520.2 223.3 494.8 211.4 498 211.4 455.5 223.3 452.3 223.3 387.4 211.4 390.5 211.4 349.5 223.3 346.4 223.3 290.1 211.4 293.3 211.4 277.4"/>
        <polygon class="cls-2" points="231.4 385.2 231.4 410.5 296.3 393.2 296.3 352.2 276.3 357.5 276.3 373.2 231.4 385.2"/>
        <polygon class="cls-2" points="231.4 492.6 231.4 518 300.4 499.5 300.4 457 280.4 462.3 280.4 479.5 231.4 492.6"/>
        <path class="cls-2" d="M407.6,245.1v14.5c1-.2,2-.4,2.9-.5v-.8c0-5.6-1-10-2.9-13.2Z"/>
        <path class="cls-2" d="M407.6,448.6v27.2c51.9-15.1,78-45.7,78-91.7v-26.4l-20,5.4v1c0,39.6-19.4,67.8-58,84.5Z"/>
        <path class="cls-2" d="M396.9,452.8c-3,1-6.1,2-9.3,3v-17.1c-5.5-1.1-9-4.3-10.7-9.5v29.4c-20.8,4.7-37.3,4.4-49.4-.8,9.9,22.1,33,29,69.4,20.8v-25.8Z"/>
        <path class="cls-2" d="M465.6,269.7l-35.1,9.4v25.4l55.1-14.8v-23c0-25.4-8.3-41.6-24.9-48.4,3.3,7.6,4.9,17.1,4.9,28.4v23Z"/>
        <path class="cls-2" d="M355.7,273v128c0,13.3,6.6,19.2,20,18v-126c0-14.6,7-24.5,21.2-30.2v-23.9c-2.7-.2-5.8,0-9.3.7v-14c-3.7,1.4-7.3,2.9-10.7,4.5v12.7c-14.2,5.7-21.2,15.6-21.2,30.2Z"/>
        <path class="cls-2" d="M544.1,223.8v123.9c0,15,6.8,22,20,20.7,0-.2,0-.5,0-.7v-123.9c0-15.5,7.5-26.2,22.3-32.1v-22.7c-3-.6-6.4-.6-10.4,0v-14c-3.3,1.2-6.5,2.5-9.6,3.9v12.7c-14.8,5.8-22.3,16.5-22.3,32.1Z"/>
        <path class="cls-2" d="M598.8,208.8c0-5.5-1-9.8-2.9-13.1v13.4c1-.2,2-.3,2.9-.4Z"/>
        <path class="cls-2" d="M653.9,310.5c0,41.5-19.4,70.6-58,87.6v27.2c51.9-15.1,78-46.7,78-94.8v-112.4c0-26.3-8.5-43.1-25.3-50.1,3.5,8,5.3,18,5.3,30.1v112.4Z"/>
        <path class="cls-2" d="M576,388c-4.4-1.1-7.6-3.7-9.6-7.8v27.7c-21,4.7-37.7,4.3-50-1.1,10.4,22.2,33.7,29.3,70,21.1v-26c-3.4,1.2-6.8,2.4-10.4,3.4v-17.3Z"/>
        <polygon class="cls-2" points="462.4 718.4 462.4 743.8 515.1 729.6 515.1 534.6 495.1 539.9 495.1 709.6 462.4 718.4"/>
        <polygon class="cls-2" points="550.7 474.1 550.7 490 407.3 528.5 407.3 553.8 442.4 544.4 442.4 528.7 495.1 514.6 495.1 530.3 568.7 510.6 568.7 469.3 550.7 474.1"/>
        <path class="cls-2" d="M669,483.7c1.6-.4,3.1-.7,4.5-1-1.1-16.6-8-22.8-22.7-19.5v25.3l18.3-4.9Z"/>
        <path class="cls-2" d="M696.8,529.5c12.5.1,21.2,5.7,25.9,16.7,17.7-11.2,24.8-30.4,24.8-59.6s-8.1-39.1-24.3-45.6c2.9,7,4.3,15.5,4.3,25.6,0,32.3-8.7,52.3-30.7,62.9Z"/>
        <path class="cls-2" d="M746.9,621.3v-29.6c0-24.3-7.6-38-22.7-41.4,1.8,5.9,2.7,13,2.7,21.4v54c0,9.6.9,16.8,3.5,20.8l-37.4,10v7.3c0,8.1,1.2,13.7,3.8,17l53.6-14.4c-2.6-4-3.5-11.2-3.5-20.8v-3.6l-4.9,1.3,4.9-22.2Z"/>
        <path class="cls-2" d="M650.7,562.7v25.3l18.3-4.9c1.3-.4,2.6-.6,3.8-.8-1.4-16-8.8-22.5-22.1-19.6Z"/>
        <polygon class="cls-2" points="630.7 527 641.2 524.2 641.2 465.8 630.7 468.6 630.7 452.7 621.2 455.2 621.2 675.9 588.7 684.5 588.7 709.9 641.2 695.9 641.2 565.2 630.7 568 630.7 527"/>
        <polygon class="cls-2" points="874.3 387.4 926.6 594 886 604.9 891.2 628.8 946.6 614 888.3 383.6 874.3 387.4"/>
        <polygon class="cls-2" points="822.3 529.4 839 524.9 846.4 487.9 834.7 426.1 794.2 629.5 768 636.5 762 663.5 814.2 649.5 830.4 568.2 814.7 572.4 822.3 529.4"/>
        <polygon class="cls-2" points="839.4 565.8 834.7 592.4 865.8 584.1 860.5 560.2 839.4 565.8"/>
        <path class="cls-2" d="M1046.6,361.5v14.5c1-.2,2-.4,2.9-.5v-.8c0-5.6-1-10-2.9-13.2Z"/>
        <path class="cls-2" d="M1099.6,334.7c3.3,7.6,4.9,17.1,4.9,28.4v23l-35.1,9.4v25.4l55.1-14.8v-23c0-25.4-8.3-41.6-24.9-48.4Z"/>
        <path class="cls-2" d="M966.4,574.3c9.9,22.1,33,29,69.4,20.8v-25.8c-3,1-6.1,2-9.3,3v-17.1c-5.5-1.1-9-4.3-10.7-9.5v29.4c-20.8,4.7-37.3,4.4-49.4-.8Z"/>
        <path class="cls-2" d="M1046.6,565v27.2c51.9-15.1,78-45.7,78-91.7v-26.4l-20,5.4v1c0,39.6-19.4,67.8-58,84.5Z"/>
        <path class="cls-2" d="M1026.6,356v-14c-3.7,1.4-7.3,2.9-10.7,4.5v12.7c-14.2,5.7-21.2,15.6-21.2,30.2v128c0,13.3,6.6,19.2,20,18v-126c0-14.6,7-24.5,21.2-30.2v-23.9c-2.7-.2-5.8,0-9.3.7Z"/>
        <polygon class="cls-2" points="1192 437.5 1192 367 1203.9 343.1 1203.9 299.1 1183.9 304.4 1183.9 525.1 1150.6 534 1150.6 559.4 1203.9 545.1 1203.9 418.9 1203 417.1 1192 437.5"/>
        <polygon class="cls-2" points="1264.2 368 1319.5 268.1 1283 277.9 1249.1 339.1 1264.2 368"/>
        <polygon class="cls-2" points="1212 457.5 1217.7 447 1212 435.4 1212 457.5"/>
        <polygon class="cls-2" points="1231.2 348.5 1304.2 492.8 1256.6 505.6 1267.7 528 1324.2 512.8 1236.1 338.6 1231.2 348.5"/>
        <polygon class="cls-2" points="518.3 859.5 511.4 861.3 511.4 901.6 504.4 903.4 504.4 916.1 521.4 911.6 521.4 898.9 518.3 899.7 518.3 859.5"/>
        <polygon class="cls-2" points="535.3 895.2 528.3 897 528.3 909.7 545.3 905.2 545.3 807.2 535.3 809.8 535.3 895.2"/>
        <polygon class="cls-2" points="518.3 842 518.3 814.4 511.4 816.2 511.4 843.8 518.3 842"/>
        <path class="cls-2" d="M570.7,803.9h-.3c-1.9.6-3.4,2.6-3.4,4.6v58.4c0,2,1.5,3.2,3.4,2.7h.3c1.9-.6,3.4-2.6,3.4-4.6v-58.4c0-2-1.5-3.2-3.4-2.7Z"/>
        <path class="cls-2" d="M590.6,795.2c.3,1.3.5,2.6.5,4.1v63.9c0,10.1-7.6,20.3-17.1,22.9l-6.9,1.8c-2.3.6-4.6.7-6.6.3,1.8,7.6,8.5,11.8,16.6,9.7l6.9-1.8c9.4-2.5,17.1-12.8,17.1-22.9v-63.9c0-7.6-4.3-12.9-10.5-14.1Z"/>
        <polygon class="cls-2" points="646 824.5 637.9 861.7 642.2 879.2 646.5 878 649.4 864.6 646 865.5 646 824.5"/>
        <polygon class="cls-2" points="637.8 798.2 634.1 783.4 627.1 785.2 634.3 814 637.8 798.2"/>
        <polygon class="cls-2" points="663 860.9 656 862.8 656 875.5 673 870.9 673 772.9 663 775.6 663 860.9"/>
        <polygon class="cls-2" points="622.7 830.8 622.7 871.7 615.7 873.6 615.7 886.3 632.7 881.7 632.7 869.1 632.2 869.2 622.7 830.8"/>
        <polygon class="cls-2" points="687.6 854.3 687.6 867 722.1 857.8 722.1 840.3 712.1 843 712.1 847.8 687.6 854.3"/>
        <polygon class="cls-2" points="712.1 767.2 694.6 771.9 694.6 794.7 704.6 792 704.6 781.9 722.1 777.2 722.1 759.8 712.1 762.5 712.1 767.2"/>
        <polygon class="cls-2" points="694.6 812.2 694.6 835 704.6 832.3 704.6 822.2 718 818.6 718 801.2 708 803.8 708 808.6 694.6 812.2"/>
        <path class="cls-2" d="M765.8,752.9l-3.7,1v27.8l3.7-1c1.8-.5,3.3-2.5,3.3-4.5v-20.7c0-2-1.5-3.2-3.3-2.7Z"/>
        <path class="cls-2" d="M786,743.3c0,.6.1,1.2.1,1.9v32.3c0,8.4-6.4,16.9-14.2,19l-9.9,2.7v35.2l-7,1.9v12.7l17-4.6v-35.2l9.9-2.7c7.8-2.1,14.2-10.6,14.2-19v-32.3c0-6.9-4.3-11.6-10.1-11.9Z"/>
        <path class="cls-2" d="M841.9,777.1v35.9l-7,1.9v12.7l17-4.6v-37.8c0-5.9-4.5-9.6-10-8.1Z"/>
        <path class="cls-2" d="M841.9,753.3c0,4.9-2.9,9.8-7,12.4v.2c0,.3,0,.6,0,.9,4.1.3,7.1,3.6,7.1,8.4v1.9c5.6-1.7,10-7.8,10-13.8v-23.9c0-6.7-4.3-11.2-10.1-11.2,0,.4,0,.8,0,1.2v23.9Z"/>
        <path class="cls-2" d="M824.9,783.2c0-3-2.3-4.9-5.1-4.1l-1.9.5v39.9l-7,1.9v12.7l17-4.6v-12.7l-2.9.8v-34.4Z"/>
        <path class="cls-2" d="M821.5,737.9l-3.7,1v23.2l3-.8c2.2-.6,4-3,4-5.4v-15.3c0-2-1.5-3.2-3.3-2.7Z"/>
        <path class="cls-2" d="M897.1,713c.3,1.3.5,2.6.5,4.1v63.9c0,10.1-7.6,20.3-17.1,22.9l-6.9,1.8c-2.3.6-4.6.7-6.6.3,1.8,7.6,8.5,11.8,16.6,9.7l6.9-1.8c9.4-2.5,17.1-12.8,17.1-22.9v-63.9c0-7.6-4.3-12.9-10.5-14.1Z"/>
        <path class="cls-2" d="M877.2,721.7h-.3c-1.9.6-3.4,2.6-3.4,4.6v58.4c0,2,1.5,3.2,3.4,2.7h.3c1.9-.6,3.4-2.6,3.4-4.6v-58.4c0-2-1.5-3.2-3.4-2.7Z"/>
        <path class="cls-2" d="M953,699.2c.3,1.4.4,3,.4,4.6v60.5c0,10.4-5.2,20.1-18.4,23.7l-12.7,3.4v12.7l22.7-6.1c13.2-3.5,18.4-13.3,18.4-23.7v-60.5c0-7.9-3-13.9-10.4-14.6Z"/>
        <path class="cls-2" d="M936.4,710.7c0-2-1.5-3.2-3.3-2.7l-3.8,1v63.1l3.8-1c1.8-.5,3.3-2.5,3.3-4.5v-55.9Z"/>
        <path class="cls-2" d="M988.4,757.5h.3c1.9-.6,3.4-2.6,3.4-4.6v-65.4l-7,1.9v65.4c0,2,1.5,3.2,3.4,2.7Z"/>
        <path class="cls-2" d="M1009,751.1c0,10.1-7.6,20.3-17.1,22.9l-6.9,1.8c-2.3.6-4.6.7-6.6.3,1.8,7.6,8.5,11.8,16.6,9.7l6.9-1.8c9.4-2.5,17.1-12.8,17.1-22.9v-80.9l-10,2.7v68.2Z"/>
        <path class="cls-2" d="M1047.6,759.1l-6.9,1.8c-2.3.6-4.6.7-6.6.3,1.8,7.6,8.5,11.8,16.6,9.7l6.9-1.8c9.4-2.5,17.1-12.8,17.1-22.9v-25.5l-10,2.7v12.9c0,10.1-7.6,20.3-17.1,22.9Z"/>
        <path class="cls-2" d="M1047.7,679.7c0-2-1.5-3.2-3.4-2.7h-.3c-1.9.6-3.4,2.6-3.4,4.6v58.4c0,2,1.5,3.2,3.4,2.7h.3c1.9-.6,3.4-2.6,3.4-4.6v-22.8l3-.8v-17.4l-3,.8v-18.2Z"/>
        <path class="cls-2" d="M1064.2,668.3c.3,1.3.5,2.6.5,4.1v21l-7,1.9v12.7l17-4.6v-21c0-7.6-4.3-12.9-10.5-14.1Z"/>
        <polygon class="cls-2" points="1088.4 666.4 1088.4 679.1 1089.9 678.7 1089.9 666 1088.4 666.4"/>
        <polygon class="cls-2" points="1118.4 658.4 1106.9 661.5 1106.9 742 1099.9 743.9 1099.9 756.5 1116.9 752 1116.9 671.5 1128.4 668.4 1128.4 650.9 1118.4 653.6 1118.4 658.4"/>
        <polygon class="cls-2" points="1150.1 730.4 1143.1 732.3 1143.1 745 1160.1 740.4 1160.1 642.4 1150.1 645.1 1150.1 730.4"/>
        <polygon class="cls-2" points="1195.2 718.3 1185 721.1 1186.7 733.3 1205.2 728.3 1218.1 626.9 1206.4 630 1195.2 718.3"/>
        <polygon class="cls-2" points="1190.1 635.4 1190 634.4 1181.6 636.6 1185.9 668.2 1190.1 635.4"/>
        <polygon class="cls-2" points="1238.9 706.6 1231.9 708.5 1231.9 721.2 1248.9 716.6 1248.9 618.6 1238.9 621.3 1238.9 706.6"/>
        <polygon class="cls-2" points="1263.5 619.5 1263.5 632.2 1265.1 631.8 1265.1 619.1 1263.5 619.5"/>
        <polygon class="cls-2" points="1293.6 611.4 1282.1 614.5 1282.1 695.1 1275.1 696.9 1275.1 709.6 1292.1 705.1 1292.1 624.5 1303.6 621.4 1303.6 604 1293.6 606.7 1293.6 611.4"/>
        <polygon class="cls-2" points="1337.1 643.8 1336.9 643.8 1336.9 680.4 1329.9 682.2 1329.9 694.9 1346.9 690.4 1346.9 653.8 1347.1 653.8 1360.9 588.6 1348.1 592.1 1337.1 643.8"/>
        <polygon class="cls-2" points="1328.7 618.4 1332.3 597.8 1332.5 596.4 1332.5 596.2 1324.8 598.3 1325.1 599.8 1328.7 618.4"/>
        <polygon class="cls-3" points="203.3 279.6 203.3 254.2 150.3 268.4 150.3 514.4 170.3 509 203.3 500.2 203.3 279.6"/>
        <polygon class="cls-3" points="280.4 258.9 280.4 233.5 211.4 252 211.4 277.4 211.4 293.3 223.3 290.1 231.4 288 280.4 274.9 280.4 258.9"/>
        <polygon class="cls-3" points="211.4 390.5 223.3 387.4 231.4 385.2 276.3 373.2 276.3 357.5 276.3 332.2 223.3 346.4 211.4 349.5 211.4 390.5"/>
        <polygon class="cls-3" points="211.4 498 223.3 494.8 231.4 492.6 280.4 479.5 280.4 462.3 280.4 437 223.3 452.3 211.4 455.5 211.4 498"/>
        <path class="cls-3" d="M396.9,452.8c3.7-1.3,7.3-2.7,10.7-4.2,38.6-16.7,58-44.9,58-84.5v-26.4l-55.1,14.8v33.9c0,14.3-7.5,24.1-22.9,29.7v39.8c3.2-.9,6.3-1.9,9.3-3Z"/>
        <path class="cls-3" d="M396.9,238.9c4.9.4,8.5,2.5,10.7,6.2,1.9,3.2,2.9,7.6,2.9,13.2v26.1l20-5.4,35.1-9.4v-23c0-11.3-1.6-20.8-4.9-28.4-9.8-22.8-34.2-29.2-73-19v40.4c3.5-.7,6.6-1,9.3-.7Z"/>
        <path class="cls-3" d="M376.9,458.6v-39.8c-.4,0-.8,0-1.2,0-13.4,1.2-20-4.8-20-18v-128c0-14.6,7-24.5,21.2-30.2v-40.4c-50.1,15.9-75.1,45-75.1,87.2v116.8c0,27.1,8.5,44.2,25.6,51.5,12.1,5.2,28.6,5.5,49.4.8Z"/>
        <path class="cls-3" d="M516.4,406.7c12.3,5.5,29,5.9,50,1.1v-39.8c-.8.1-1.5.2-2.3.3-13.3,1.3-20-5.7-20-20.7v-123.9c0-15.5,7.5-26.2,22.3-32.1v-40.1c-50.7,15.1-76.2,45-76.2,89.1v112.4c0,28,8.8,45.9,26.2,53.6Z"/>
        <path class="cls-3" d="M586.4,189c4.3.9,7.5,3.1,9.6,6.7,1.9,3.2,2.8,7.6,2.9,13.1,0,.1,0,.2,0,.3v123.9c0,16.1-7.5,26.9-22.9,32.5v39.8c3.6-1.1,7.1-2.2,10.4-3.4,3.3-1.2,6.5-2.5,9.6-3.8,38.6-17,58-46.1,58-87.6v-112.4c0-12-1.8-22.1-5.3-30.1-10-22.8-34.3-29.3-72.6-19.2v40.4c4-.7,7.5-.7,10.4,0Z"/>
        <polygon class="cls-3" points="550.7 474.1 550.7 448.7 387.3 492.5 387.3 533.8 407.3 528.5 550.7 490 550.7 474.1"/>
        <polygon class="cls-3" points="442.4 528.7 442.4 544.4 442.4 723.8 462.4 718.4 495.1 709.6 495.1 539.9 495.1 530.3 495.1 514.6 442.4 528.7"/>
        <polygon class="cls-3" points="621.2 455.2 621.2 429.9 568.7 443.9 568.7 469.3 568.7 510.6 568.7 689.9 588.7 684.5 621.2 675.9 621.2 455.2"/>
        <path class="cls-3" d="M726.9,625.8v-54c0-8.4-.9-15.5-2.7-21.4-.4-1.4-.9-2.8-1.5-4.1-4.7-11-13.4-16.6-25.9-16.7,22-10.6,30.7-30.6,30.7-62.9s-1.5-18.6-4.3-25.6c-9.5-23.1-34.7-29.2-75.7-18.2l-16.8,4.5v41.3l10.4-2.8,7.8-2.1c.6-.2,1.2-.3,1.7-.4,14.7-3.4,21.6,2.9,22.7,19.5.1,1.6.2,3.3.2,5.1,0,17.7-8.1,29.8-24.6,34.2l-7.8,2.1-10.4,2.8v41l10.4-2.8,7.8-2.1c.6-.2,1.2-.3,1.7-.4,13.2-2.9,20.6,3.7,22.1,19.6.2,1.9.3,3.9.3,6v55.6c0,8.1,1.2,13.7,3.8,17l16.2-4.3,37.4-10c-2.6-4-3.5-11.2-3.5-20.8Z"/>
        <polygon class="cls-3" points="874.3 387.4 868.3 363.6 800.2 381.9 746.9 621.3 742 643.5 746.9 642.2 768 636.5 794.2 629.5 834.7 426.1 846.4 487.9 852.7 521.3 839 524.9 822.3 529.4 814.7 572.4 830.4 568.2 839.4 565.8 860.5 560.2 865.8 584.1 871.2 608.8 886 604.9 926.6 594 874.3 387.4"/>
        <path class="cls-3" d="M994.7,517.4v-128c0-14.6,7-24.5,21.2-30.2v-40.4c-50.1,15.9-75.1,45-75.1,87.2v116.8c0,27.1,8.5,44.2,25.6,51.5,12.1,5.2,28.6,5.5,49.4.8v-39.8c-.4,0-.8,0-1.2,0-13.4,1.2-20-4.7-20-18Z"/>
        <path class="cls-3" d="M1035.8,569.2c3.7-1.3,7.3-2.7,10.7-4.2,38.6-16.7,58-44.9,58-84.5v-26.4l-55.1,14.8v33.9c0,14.3-7.5,24.1-22.9,29.7v39.8c3.2-.9,6.3-1.9,9.3-3Z"/>
        <path class="cls-3" d="M1104.5,363.1c0-11.3-1.6-20.8-4.9-28.4-9.8-22.8-34.2-29.2-73-19v40.4c3.5-.7,6.6-1,9.3-.7,4.9.4,8.5,2.5,10.7,6.2,1.9,3.2,2.9,7.6,2.9,13.2v26.1l20-5.4,35.1-9.4v-23Z"/>
        <path class="cls-3" d="M1450.6,130.1l-34,9c-4.3,1.2-434.8,115.4-453.9,120.4-14.1,3.7-26.8,12.1-37.9,21.7l-2.5-9.7-185.5,49.7-6.6,29.9c-1.7-.7-3.5-1.3-5.2-1.9,2.5-12.2,3.8-24.9,3.9-38.2.3-4.7,2.4-37.6,1.3-75.7-1.5-56.7-8.8-94-22.2-113.9-12.1-18-27.5-30.5-47-38.1-16.7-6.5-36-9.4-60.9-9-28.6.4-66.6,8.3-90.3,18.9-18.3,8.2-34.3,19.3-48.7,33.7-77.1-18.8-147.4,16.7-164.3,26.2l-221.6,57.7v401.4l237-63.5v83l55.1-14.8v204.7l1045.4-280.1-90.6-179.3,128.5-232.1ZM1369.3,522l-971.9,260.4v-204.7l-55.1,14.8v-83l-237,63.5V234l202.7-52.7,1.5-.8c.1,0,.4-.2.9-.5,12.8-7.4,80.1-43,151.2-21.7l9.1,2.7,6.3-7.1c13.3-14.8,27.6-25.4,45-33.2,20.1-9,53.8-16,78.4-16.3,42.2-.5,66.1,9.3,82.7,33.9,5.6,8.3,15.3,32.1,17.1,97.7,1.1,38.8-1.3,73.2-1.3,73.6v1c0,16-2.2,31.1-6.5,44.9l-4.9,15.9,16.3,3.2c10.6,2.1,20.4,5.9,28.9,11.2l18,11.1,11.4-51.4,138.5-37.1,8.3,32.7,18.8-20.6c11.6-12.7,27-27.9,42.5-32,15.9-4.2,317.1-84.1,419.9-111.4l-102.1,184.4,81.1,160.5Z"/>
        <polygon class="cls-3" points="1249.1 339.1 1283 277.9 1299.5 248.1 1243.9 263 1222.7 306.9 1244.2 348 1249.1 339.1"/>
        <polygon class="cls-3" points="1231.2 348.5 1216.1 318.6 1203.9 343.1 1192 367 1192 437.5 1203 417.1 1203.9 418.9 1212 435.4 1217.7 447 1247.7 508 1256.6 505.6 1304.2 492.8 1231.2 348.5"/>
        <polygon class="cls-3" points="1183.9 304.4 1183.9 279.1 1130.6 293.4 1130.6 539.4 1150.6 534 1183.9 525.1 1183.9 304.4"/>
        <polygon class="cls-3" points="535.3 809.8 535.3 797.2 518.3 801.7 518.3 814.4 518.3 842 511.4 843.8 511.4 816.2 511.4 803.6 494.4 808.1 494.4 906.1 504.4 903.4 511.4 901.6 511.4 861.3 518.3 859.5 518.3 899.7 521.4 898.9 528.3 897 535.3 895.2 535.3 809.8"/>
        <path class="cls-3" d="M567.1,887.9l6.9-1.8c9.4-2.5,17.1-12.8,17.1-22.9v-63.9c0-1.4-.2-2.8-.5-4.1-1.8-7.6-8.5-11.8-16.6-9.7l-6.9,1.8c-9.4,2.5-17.1,12.8-17.1,22.9v63.9c0,7.6,4.3,12.9,10.5,14.1,2,.4,4.3.3,6.6-.3ZM574,865c0,2-1.5,4-3.4,4.5h-.3c-1.9.6-3.4-.6-3.4-2.6v-58.4c0-2,1.5-4,3.4-4.5h.3c1.9-.6,3.4.6,3.4,2.6v58.4Z"/>
        <polygon class="cls-3" points="663 775.6 663 762.9 644.6 767.9 637.8 798.2 634.3 814 627.1 785.2 624.1 773.4 605.7 778.3 605.7 876.3 615.7 873.6 622.7 871.7 622.7 830.8 632.2 869.2 632.7 869.1 636.5 868 637.9 861.7 646 824.5 646 865.5 649.4 864.6 656 862.8 663 860.9 663 775.6"/>
        <polygon class="cls-3" points="694.6 771.9 712.1 767.2 712.1 762.5 712.1 749.8 677.6 759 677.6 857 687.6 854.3 712.1 847.8 712.1 843 712.1 830.3 704.6 832.3 694.6 835 694.6 812.2 708 808.6 708 803.8 708 791.2 704.6 792 694.6 794.7 694.6 771.9"/>
        <path class="cls-3" d="M762,799.2l9.9-2.7c7.8-2.1,14.2-10.6,14.2-19v-32.3c0-.6,0-1.3-.1-1.9-.9-7.3-6.8-11.5-14.1-9.6l-26.9,7.2v98l10-2.7,7-1.9v-35.2ZM769.1,776.2c0,2-1.5,4-3.3,4.5l-3.7,1v-27.8l3.7-1c1.8-.5,3.3.7,3.3,2.7v20.7Z"/>
        <path class="cls-3" d="M841.9,777.1h0v-1.9c0-4.9-3-8.2-7.1-8.4-.9,0-2,0-3,.3h-.3c1.2-.2,2.3-.8,3.4-1.4,4.1-2.6,7-7.5,7-12.4v-23.9c0-.4,0-.8,0-1.2-.6-7.2-6.3-11.5-13.4-9.6l-27.7,7.4v98l10-2.7,7-1.9v-39.9l1.9-.5c2.8-.8,5.1,1.1,5.1,4.1v34.4l2.9-.8,7.1-1.9,7-1.9v-35.9ZM824.9,755.9c0,2.4-1.8,4.8-4,5.4l-3,.8v-23.2l3.7-1c1.8-.5,3.3.7,3.3,2.7v15.3Z"/>
        <path class="cls-3" d="M873.6,805.8l6.9-1.8c9.4-2.5,17.1-12.8,17.1-22.9v-63.9c0-1.4-.2-2.8-.5-4.1-1.8-7.6-8.5-11.8-16.6-9.7l-6.9,1.8c-9.4,2.5-17.1,12.8-17.1,22.9v63.9c0,7.6,4.3,12.9,10.5,14.1,2,.4,4.3.3,6.6-.3ZM880.6,782.8c0,2-1.5,4-3.4,4.5h-.3c-1.9.6-3.4-.6-3.4-2.6v-58.4c0-2,1.5-4,3.4-4.5h.3c1.9-.6,3.4.6,3.4,2.6v58.4Z"/>
        <path class="cls-3" d="M953.4,764.4v-60.5c0-1.6-.1-3.2-.4-4.6-1.4-7.7-6.9-12.1-18-9.2l-22.7,6.1v98l10-2.7,12.7-3.4c13.2-3.5,18.4-13.3,18.4-23.7ZM933,771.1l-3.8,1v-63.1l3.8-1c1.8-.5,3.3.7,3.3,2.7v55.9c0,2-1.5,4-3.3,4.5Z"/>
        <path class="cls-3" d="M985.1,775.8l6.9-1.8c9.4-2.5,17.1-12.8,17.1-22.9v-80.9l-17,4.6v78.1c0,2-1.5,4-3.4,4.5h-.3c-1.9.6-3.4-.6-3.4-2.6v-78.1l-17,4.6v80.9c0,7.6,4.3,12.9,10.5,14.1,2,.4,4.3.3,6.6-.3Z"/>
        <path class="cls-3" d="M1064.7,672.3c0-1.4-.2-2.8-.5-4.1-1.8-7.6-8.5-11.8-16.6-9.7l-6.9,1.8c-9.4,2.5-17.1,12.8-17.1,22.9v63.9c0,7.6,4.3,13,10.5,14.1,2,.4,4.3.3,6.6-.3l6.9-1.8c9.4-2.5,17.1-12.8,17.1-22.9v-25.5l-14,3.8-3,.8v22.8c0,2-1.5,4-3.4,4.5h-.3c-1.9.6-3.4-.6-3.4-2.6v-58.4c0-2,1.5-4,3.4-4.5h.3c1.9-.6,3.4.6,3.4,2.6v18.2l3-.8,7-1.9,7-1.9v-21Z"/>
        <polygon class="cls-3" points="1106.9 661.5 1118.4 658.4 1118.4 653.6 1118.4 640.9 1078.4 651.6 1078.4 669.1 1088.4 666.4 1089.9 666 1089.9 678.7 1089.9 746.5 1099.9 743.9 1106.9 742 1106.9 661.5"/>
        <polygon class="cls-3" points="1150.1 645.1 1150.1 632.4 1133.1 637 1133.1 735 1143.1 732.3 1150.1 730.4 1150.1 645.1"/>
        <polygon class="cls-3" points="1206.4 630 1208.1 616.9 1191.9 621.2 1190.1 635.4 1185.9 668.2 1181.6 636.6 1180 624.4 1163.8 628.7 1176.7 723.3 1185 721.1 1195.2 718.3 1206.4 630"/>
        <polygon class="cls-3" points="1238.9 621.3 1238.9 608.6 1221.9 613.2 1221.9 711.2 1231.9 708.5 1238.9 706.6 1238.9 621.3"/>
        <polygon class="cls-3" points="1282.1 614.5 1293.6 611.4 1293.6 606.7 1293.6 594 1253.5 604.7 1253.5 622.2 1263.5 619.5 1265.1 619.1 1265.1 631.8 1265.1 699.6 1275.1 696.9 1282.1 695.1 1282.1 614.5"/>
        <polygon class="cls-3" points="1336.9 643.8 1337.1 643.8 1348.1 592.1 1350.9 578.6 1334.9 582.9 1332.5 596.4 1332.3 597.8 1328.7 618.4 1325.1 599.8 1324.8 598.3 1322.5 586.2 1306.4 590.5 1319.9 647 1319.9 684.9 1329.9 682.2 1336.9 680.4 1336.9 643.8"/>
      </g>
    </g>
  </g>
</svg>